# xmcd
#
# Track frame offsets:
#	150
#	20765
#	34401
#	60214
#	70509
#	92881
#	108870
#	131260
#	156990
#	185024
#	211300
#	238948
#
# Disc length: 3440 seconds
#
# Revision: 1
# Processed by: cddbd v1.4PL0 Copyright (c) Steve Scherf et al.
# Submitted via: audiograbber 1.80.04
#
DISCID=a20d6e0c
DTITLE=Trafficker - Lost In the Frame
DYEAR=2002
DGENRE=Blues
TTITLE0=All Over Again
TTITLE1=Treat Her Right
TTITLE2=What Can I Do?
TTITLE3=Live Life For Today
TTITLE4=Little Miss Wrong
TTITLE5=Just For You
TTITLE6=Shadows Of Love
TTITLE7=Personal Investigator
TTITLE8=Angel
TTITLE9=Is That Enough For Me?
TTITLE10=Be My Friend
TTITLE11=Song For Mom
EXTD=www.tommyallen.com
EXTT0=
EXTT1=
EXTT2=
EXTT3=
EXTT4=
EXTT5=
EXTT6=
EXTT7=
EXTT8=
EXTT9=
EXTT10=
EXTT11=
PLAYORDER=
